<svg xmlns="http://www.w3.org/2000/svg" data-name="Layer 3" viewBox="0 0 64 80" x="0px" y="0px"><path d="M26.865,28.279l-6.774-6.774a1,1,0,0,1,1.414-1.414l6.774,6.773,2.373-2.374-9.207-9.208a1,1,0,0,1-.258-.965A9.821,9.821,0,0,0,9.825,2.176l-.136.03L14.744,7.27a3.121,3.121,0,0,1,0,4.442l-3.031,3.031a3.211,3.211,0,0,1-4.455-.006L2.208,9.691l-.032.145A9.847,9.847,0,0,0,14.334,21.205a1,1,0,0,1,.959.26l9.193,9.194Z"/><path d="M48.873,21.153a1,1,0,0,1,.962-.26A9.75,9.75,0,0,0,61.827,9.658l-5,4.88a3.12,3.12,0,0,1-4.4.02l-2.98-2.981a3.124,3.124,0,0,1,.02-4.414L54.426,2.2l-.1-.026a9.757,9.757,0,0,0-11.231,12,1,1,0,0,1-.262.955L15.127,42.837a1,1,0,0,1-.956.261,9.757,9.757,0,0,0-12,11.233l.021.1.08-.076,4.89-4.89a3.168,3.168,0,0,1,4.414-.021l2.98,2.981a3.117,3.117,0,0,1-.02,4.4l-4.9,4.909a9.429,9.429,0,0,0,8.705-2.6,9.714,9.714,0,0,0,2.551-9.3,1,1,0,0,1,.259-.962ZM20.293,43.707a1,1,0,0,1,0-1.414l22-22a1,1,0,0,1,1.414,1.414l-22,22a1,1,0,0,1-1.414,0Z"/><path d="M49.683,42.814a1,1,0,0,1-.965-.259l-9.209-9.209-2.375,2.375L43.909,42.5a1,1,0,0,1,0,1.414,1.027,1.027,0,0,1-1.414,0L35.72,37.135l-2.374,2.374,9.188,9.2a1,1,0,0,1,.261.959,9.9,9.9,0,0,0,2.561,9.449,9.73,9.73,0,1,0,4.327-16.3Zm8.494,11.575-3.788,3.788a1.021,1.021,0,0,1-.965.259L48.24,57.051a1,1,0,0,1-.708-.708L46.147,51.16a1,1,0,0,1,.259-.966l3.788-3.788a1,1,0,0,1,.965-.26l5.184,1.386a1,1,0,0,1,.708.708l1.385,5.183A1,1,0,0,1,58.177,54.389Z"/><text x="0" y="79" fill="#000000" font-size="5px" font-weight="bold" font-family="'Helvetica Neue', Helvetica, Arial-Unicode, Arial, Sans-serif">Created by Gicon studio</text><text x="0" y="84" fill="#000000" font-size="5px" font-weight="bold" font-family="'Helvetica Neue', Helvetica, Arial-Unicode, Arial, Sans-serif">from the Noun Project</text></svg>